# MagicaVoxel @ Ephtracy

# material
mtllib house.mtl
usemtl palette

# normals
vn -1 0 0
vn 1 0 0
vn 0 0 1
vn 0 0 -1
vn 0 -1 0
vn 0 1 0

# texcoords
vt 0.986328 0.5
vt 0.990234 0.5
vt 0.994141 0.5

# verts
v -4 0 4.5
v -4 0 -7.5
v -4 1 4.5
v -4 1 -7.5
v -4 2 4.5
v -4 2 -7.5
v -4 3 4.5
v -4 3 -7.5
v -4 4 4.5
v -4 4 -7.5
v -4 5 4.5
v -4 5 -7.5
v -4 6 4.5
v -4 6 -7.5
v -4 7 4.5
v -4 7 -7.5
v -4 8 4.5
v -4 8 -7.5
v -4 9 4.5
v -4 9 -7.5
v -3 0 5.5
v -3 0 4.5
v -3 0 -7.5
v -3 0 -8.5
v -3 1 5.5
v -3 1 4.5
v -3 1 -7.5
v -3 1 -8.5
v -3 2 5.5
v -3 2 4.5
v -3 2 -7.5
v -3 2 -8.5
v -3 3 5.5
v -3 3 4.5
v -3 3 -7.5
v -3 3 -8.5
v -3 4 5.5
v -3 4 4.5
v -3 4 -7.5
v -3 4 -8.5
v -3 5 5.5
v -3 5 4.5
v -3 5 -7.5
v -3 5 -8.5
v -3 6 5.5
v -3 6 4.5
v -3 6 -7.5
v -3 6 -8.5
v -3 7 5.5
v -3 7 4.5
v -3 7 -7.5
v -3 7 -8.5
v -3 8 5.5
v -3 8 4.5
v -3 8 -7.5
v -3 8 -8.5
v -3 9 5.5
v -3 9 4.5
v -3 9 -7.5
v -3 9 -8.5
v -2 0 6.5
v -2 0 5.5
v -2 0 -8.5
v -2 0 -9.5
v -2 1 6.5
v -2 1 5.5
v -2 1 -8.5
v -2 1 -9.5
v -2 2 6.5
v -2 2 5.5
v -2 2 -8.5
v -2 2 -9.5
v -2 3 6.5
v -2 3 5.5
v -2 3 -8.5
v -2 3 -9.5
v -2 4 6.5
v -2 4 5.5
v -2 4 -8.5
v -2 4 -9.5
v -2 5 6.5
v -2 5 5.5
v -2 5 -8.5
v -2 5 -9.5
v -2 6 6.5
v -2 6 5.5
v -2 6 -8.5
v -2 6 -9.5
v -2 7 6.5
v -2 7 5.5
v -2 7 -8.5
v -2 7 -9.5
v -2 8 6.5
v -2 8 5.5
v -2 8 -8.5
v -2 8 -9.5
v -2 9 6.5
v -2 9 5.5
v -2 9 -8.5
v -2 9 -9.5
v -1 0 7.5
v -1 0 6.5
v -1 1 7.5
v -1 1 6.5
v -1 2 7.5
v -1 2 6.5
v -1 3 7.5
v -1 3 6.5
v -1 4 7.5
v -1 4 6.5
v -1 5 7.5
v -1 5 6.5
v -1 6 7.5
v -1 6 6.5
v -1 7 7.5
v -1 7 6.5
v -1 8 7.5
v -1 8 6.5
v -1 9 7.5
v -1 9 6.5
v 0 6 2.5
v 0 6 1.5
v 0 6 -2.5
v 0 6 -3.5
v 0 7 2.5
v 0 7 1.5
v 0 7 -2.5
v 0 7 -3.5
v 1 0 9.5
v 1 0 7.5
v 1 1 9.5
v 1 1 8.5
v 1 1 7.5
v 1 2 8.5
v 1 2 7.5
v -3 2 3.5
v -3 2 -6.5
v -3 3 3.5
v -3 3 -6.5
v -2 2 4.5
v -2 2 3.5
v -2 2 -6.5
v -2 2 -7.5
v -2 3 4.5
v -2 3 3.5
v -2 3 -6.5
v -2 3 -7.5
v -2 4 4.5
v -2 4 -7.5
v -2 5 4.5
v -2 5 -7.5
v -2 6 4.5
v -2 6 -7.5
v -2 7 4.5
v -2 7 -7.5
v -1 2 5.5
v -1 2 4.5
v -1 3 5.5
v -1 3 4.5
v -1 4 5.5
v -1 4 4.5
v -1 5 5.5
v -1 5 4.5
v -1 6 5.5
v -1 6 4.5
v -1 7 5.5
v -1 7 4.5
v 0 2 6.5
v 0 2 5.5
v 0 3 6.5
v 0 3 5.5
v 0 4 6.5
v 0 4 5.5
v 0 5 6.5
v 0 5 5.5
v 0 6 6.5
v 0 6 5.5
v 0 7 6.5
v 0 7 5.5
v 1 6 2.5
v 1 6 1.5
v 1 6 -2.5
v 1 6 -3.5
v 1 7 2.5
v 1 7 1.5
v 1 7 -2.5
v 1 7 -3.5
v 2 2 7.5
v 2 2 6.5
v 2 3 7.5
v 2 3 6.5
v 2 4 7.5
v 2 4 6.5
v 2 5 7.5
v 2 5 6.5
v 4 0 9.5
v 4 0 -9.5
v 4 1 9.5
v 4 1 8.5
v 4 1 -9.5
v 4 2 8.5
v 4 2 -7.5
v 4 2 -9.5
v 4 3 -7.5
v 4 3 -9.5
v 4 4 -7.5
v 4 4 -9.5
v 4 5 7.5
v 4 5 6.5
v 4 5 -7.5
v 4 5 -9.5
v 4 6 7.5
v 4 6 6.5
v 4 6 -7.5
v 4 6 -9.5
v 4 7 7.5
v 4 7 6.5
v 4 7 -7.5
v 4 7 -9.5
v 4 8 7.5
v 4 8 -9.5
v 4 9 7.5
v 4 9 -9.5
v 1 0 9.5
v 1 1 9.5
v 4 0 9.5
v 4 1 9.5
v 1 1 8.5
v 1 2 8.5
v 4 1 8.5
v 4 2 8.5
v -1 0 7.5
v -1 1 7.5
v -1 2 7.5
v -1 3 7.5
v -1 4 7.5
v -1 5 7.5
v -1 6 7.5
v -1 7 7.5
v -1 8 7.5
v -1 9 7.5
v 1 0 7.5
v 1 1 7.5
v 1 2 7.5
v 2 2 7.5
v 2 3 7.5
v 2 4 7.5
v 2 5 7.5
v 4 5 7.5
v 4 6 7.5
v 4 7 7.5
v 4 8 7.5
v 4 9 7.5
v -2 0 6.5
v -2 1 6.5
v -2 2 6.5
v -2 3 6.5
v -2 4 6.5
v -2 5 6.5
v -2 6 6.5
v -2 7 6.5
v -2 8 6.5
v -2 9 6.5
v -1 0 6.5
v -1 1 6.5
v -1 2 6.5
v -1 3 6.5
v -1 4 6.5
v -1 5 6.5
v -1 6 6.5
v -1 7 6.5
v -1 8 6.5
v -1 9 6.5
v -3 0 5.5
v -3 1 5.5
v -3 2 5.5
v -3 3 5.5
v -3 4 5.5
v -3 5 5.5
v -3 6 5.5
v -3 7 5.5
v -3 8 5.5
v -3 9 5.5
v -2 0 5.5
v -2 1 5.5
v -2 2 5.5
v -2 3 5.5
v -2 4 5.5
v -2 5 5.5
v -2 6 5.5
v -2 7 5.5
v -2 8 5.5
v -2 9 5.5
v -4 0 4.5
v -4 1 4.5
v -4 2 4.5
v -4 3 4.5
v -4 4 4.5
v -4 5 4.5
v -4 6 4.5
v -4 7 4.5
v -4 8 4.5
v -4 9 4.5
v -3 0 4.5
v -3 1 4.5
v -3 2 4.5
v -3 3 4.5
v -3 4 4.5
v -3 5 4.5
v -3 6 4.5
v -3 7 4.5
v -3 8 4.5
v -3 9 4.5
v 0 6 2.5
v 0 7 2.5
v 1 6 2.5
v 1 7 2.5
v 0 6 -2.5
v 0 7 -2.5
v 1 6 -2.5
v 1 7 -2.5
v -3 2 -6.5
v -3 3 -6.5
v -2 2 -6.5
v -2 3 -6.5
v -2 2 -7.5
v -2 3 -7.5
v -2 4 -7.5
v -2 5 -7.5
v -2 6 -7.5
v -2 7 -7.5
v 4 2 -7.5
v 4 3 -7.5
v 4 4 -7.5
v 4 5 -7.5
v 4 6 -7.5
v 4 7 -7.5
v 0 2 6.5
v 0 3 6.5
v 0 4 6.5
v 0 5 6.5
v 0 6 6.5
v 0 7 6.5
v 2 2 6.5
v 2 3 6.5
v 2 4 6.5
v 2 5 6.5
v 4 5 6.5
v 4 6 6.5
v 4 7 6.5
v -1 2 5.5
v -1 3 5.5
v -1 4 5.5
v -1 5 5.5
v -1 6 5.5
v -1 7 5.5
v 0 2 5.5
v 0 3 5.5
v 0 4 5.5
v 0 5 5.5
v 0 6 5.5
v 0 7 5.5
v -2 2 4.5
v -2 3 4.5
v -2 4 4.5
v -2 5 4.5
v -2 6 4.5
v -2 7 4.5
v -1 2 4.5
v -1 3 4.5
v -1 4 4.5
v -1 5 4.5
v -1 6 4.5
v -1 7 4.5
v -3 2 3.5
v -3 3 3.5
v -2 2 3.5
v -2 3 3.5
v 0 6 1.5
v 0 7 1.5
v 1 6 1.5
v 1 7 1.5
v 0 6 -3.5
v 0 7 -3.5
v 1 6 -3.5
v 1 7 -3.5
v -4 0 -7.5
v -4 1 -7.5
v -4 2 -7.5
v -4 3 -7.5
v -4 4 -7.5
v -4 5 -7.5
v -4 6 -7.5
v -4 7 -7.5
v -4 8 -7.5
v -4 9 -7.5
v -3 0 -7.5
v -3 1 -7.5
v -3 2 -7.5
v -3 3 -7.5
v -3 4 -7.5
v -3 5 -7.5
v -3 6 -7.5
v -3 7 -7.5
v -3 8 -7.5
v -3 9 -7.5
v -3 0 -8.5
v -3 1 -8.5
v -3 2 -8.5
v -3 3 -8.5
v -3 4 -8.5
v -3 5 -8.5
v -3 6 -8.5
v -3 7 -8.5
v -3 8 -8.5
v -3 9 -8.5
v -2 0 -8.5
v -2 1 -8.5
v -2 2 -8.5
v -2 3 -8.5
v -2 4 -8.5
v -2 5 -8.5
v -2 6 -8.5
v -2 7 -8.5
v -2 8 -8.5
v -2 9 -8.5
v -2 0 -9.5
v -2 1 -9.5
v -2 2 -9.5
v -2 3 -9.5
v -2 4 -9.5
v -2 5 -9.5
v -2 6 -9.5
v -2 7 -9.5
v -2 8 -9.5
v -2 9 -9.5
v 4 0 -9.5
v 4 1 -9.5
v 4 2 -9.5
v 4 3 -9.5
v 4 4 -9.5
v 4 5 -9.5
v 4 6 -9.5
v 4 7 -9.5
v 4 8 -9.5
v 4 9 -9.5
v 1 0 9.5
v 4 0 9.5
v -1 0 7.5
v 1 0 7.5
v -2 0 6.5
v -1 0 6.5
v -3 0 5.5
v -2 0 5.5
v -4 0 4.5
v -3 0 4.5
v -4 0 -7.5
v -3 0 -7.5
v -3 0 -8.5
v -2 0 -8.5
v -2 0 -9.5
v 4 0 -9.5
v -3 3 3.5
v -2 3 3.5
v -3 3 -6.5
v -2 3 -6.5
v 2 5 7.5
v 4 5 7.5
v 2 5 6.5
v 4 5 6.5
v 0 6 2.5
v 1 6 2.5
v 0 6 1.5
v 1 6 1.5
v 0 6 -2.5
v 1 6 -2.5
v 0 6 -3.5
v 1 6 -3.5
v 0 7 6.5
v 4 7 6.5
v -1 7 5.5
v 0 7 5.5
v -2 7 4.5
v -1 7 4.5
v 0 7 2.5
v 1 7 2.5
v 0 7 1.5
v 1 7 1.5
v 0 7 -2.5
v 1 7 -2.5
v 0 7 -3.5
v 1 7 -3.5
v -2 7 -7.5
v 4 7 -7.5
v 1 1 9.5
v 4 1 9.5
v 1 1 8.5
v 4 1 8.5
v 1 2 8.5
v 4 2 8.5
v 1 2 7.5
v 2 2 7.5
v 0 2 6.5
v 2 2 6.5
v -1 2 5.5
v 0 2 5.5
v -2 2 4.5
v -1 2 4.5
v -3 2 3.5
v -2 2 3.5
v -3 2 -6.5
v -2 2 -6.5
v -2 2 -7.5
v 4 2 -7.5
v -1 9 7.5
v 4 9 7.5
v -2 9 6.5
v -1 9 6.5
v -3 9 5.5
v -2 9 5.5
v -4 9 4.5
v -3 9 4.5
v -4 9 -7.5
v -3 9 -7.5
v -3 9 -8.5
v -2 9 -8.5
v -2 9 -9.5
v 4 9 -9.5

# faces
f 3/3/1 2/3/1 1/3/1
f 4/3/1 2/3/1 3/3/1
f 5/2/1 4/2/1 3/2/1
f 6/2/1 4/2/1 5/2/1
f 7/3/1 6/3/1 5/3/1
f 8/3/1 6/3/1 7/3/1
f 9/2/1 8/2/1 7/2/1
f 10/2/1 8/2/1 9/2/1
f 11/3/1 10/3/1 9/3/1
f 12/3/1 10/3/1 11/3/1
f 13/2/1 12/2/1 11/2/1
f 14/2/1 12/2/1 13/2/1
f 15/3/1 14/3/1 13/3/1
f 16/3/1 14/3/1 15/3/1
f 17/2/1 16/2/1 15/2/1
f 18/2/1 16/2/1 17/2/1
f 19/3/1 18/3/1 17/3/1
f 20/3/1 18/3/1 19/3/1
f 25/3/1 22/3/1 21/3/1
f 26/3/1 22/3/1 25/3/1
f 27/3/1 24/3/1 23/3/1
f 28/3/1 24/3/1 27/3/1
f 29/2/1 26/2/1 25/2/1
f 30/2/1 26/2/1 29/2/1
f 31/2/1 28/2/1 27/2/1
f 32/2/1 28/2/1 31/2/1
f 33/3/1 30/3/1 29/3/1
f 34/3/1 30/3/1 33/3/1
f 35/3/1 32/3/1 31/3/1
f 36/3/1 32/3/1 35/3/1
f 37/2/1 34/2/1 33/2/1
f 38/2/1 34/2/1 37/2/1
f 39/2/1 36/2/1 35/2/1
f 40/2/1 36/2/1 39/2/1
f 41/3/1 38/3/1 37/3/1
f 42/3/1 38/3/1 41/3/1
f 43/3/1 40/3/1 39/3/1
f 44/3/1 40/3/1 43/3/1
f 45/2/1 42/2/1 41/2/1
f 46/2/1 42/2/1 45/2/1
f 47/2/1 44/2/1 43/2/1
f 48/2/1 44/2/1 47/2/1
f 49/3/1 46/3/1 45/3/1
f 50/3/1 46/3/1 49/3/1
f 51/3/1 48/3/1 47/3/1
f 52/3/1 48/3/1 51/3/1
f 53/2/1 50/2/1 49/2/1
f 54/2/1 50/2/1 53/2/1
f 55/2/1 52/2/1 51/2/1
f 56/2/1 52/2/1 55/2/1
f 57/3/1 54/3/1 53/3/1
f 58/3/1 54/3/1 57/3/1
f 59/3/1 56/3/1 55/3/1
f 60/3/1 56/3/1 59/3/1
f 65/3/1 62/3/1 61/3/1
f 66/3/1 62/3/1 65/3/1
f 67/3/1 64/3/1 63/3/1
f 68/3/1 64/3/1 67/3/1
f 69/2/1 66/2/1 65/2/1
f 70/2/1 66/2/1 69/2/1
f 71/2/1 68/2/1 67/2/1
f 72/2/1 68/2/1 71/2/1
f 73/3/1 70/3/1 69/3/1
f 74/3/1 70/3/1 73/3/1
f 75/3/1 72/3/1 71/3/1
f 76/3/1 72/3/1 75/3/1
f 77/2/1 74/2/1 73/2/1
f 78/2/1 74/2/1 77/2/1
f 79/2/1 76/2/1 75/2/1
f 80/2/1 76/2/1 79/2/1
f 81/3/1 78/3/1 77/3/1
f 82/3/1 78/3/1 81/3/1
f 83/3/1 80/3/1 79/3/1
f 84/3/1 80/3/1 83/3/1
f 85/2/1 82/2/1 81/2/1
f 86/2/1 82/2/1 85/2/1
f 87/2/1 84/2/1 83/2/1
f 88/2/1 84/2/1 87/2/1
f 89/3/1 86/3/1 85/3/1
f 90/3/1 86/3/1 89/3/1
f 91/3/1 88/3/1 87/3/1
f 92/3/1 88/3/1 91/3/1
f 93/2/1 90/2/1 89/2/1
f 94/2/1 90/2/1 93/2/1
f 95/2/1 92/2/1 91/2/1
f 96/2/1 92/2/1 95/2/1
f 97/3/1 94/3/1 93/3/1
f 98/3/1 94/3/1 97/3/1
f 99/3/1 96/3/1 95/3/1
f 100/3/1 96/3/1 99/3/1
f 103/3/1 102/3/1 101/3/1
f 104/3/1 102/3/1 103/3/1
f 105/2/1 104/2/1 103/2/1
f 106/2/1 104/2/1 105/2/1
f 107/3/1 106/3/1 105/3/1
f 108/3/1 106/3/1 107/3/1
f 109/2/1 108/2/1 107/2/1
f 110/2/1 108/2/1 109/2/1
f 111/3/1 110/3/1 109/3/1
f 112/3/1 110/3/1 111/3/1
f 113/2/1 112/2/1 111/2/1
f 114/2/1 112/2/1 113/2/1
f 115/3/1 114/3/1 113/3/1
f 116/3/1 114/3/1 115/3/1
f 117/2/1 116/2/1 115/2/1
f 118/2/1 116/2/1 117/2/1
f 119/3/1 118/3/1 117/3/1
f 120/3/1 118/3/1 119/3/1
f 125/1/1 122/1/1 121/1/1
f 126/1/1 122/1/1 125/1/1
f 127/1/1 124/1/1 123/1/1
f 128/1/1 124/1/1 127/1/1
f 131/3/1 130/3/1 129/3/1
f 132/3/1 130/3/1 131/3/1
f 133/3/1 130/3/1 132/3/1
f 134/2/1 133/2/1 132/2/1
f 135/2/1 133/2/1 134/2/1
f 136/3/2 137/3/2 138/3/2
f 138/3/2 137/3/2 139/3/2
f 140/3/2 141/3/2 144/3/2
f 144/3/2 141/3/2 145/3/2
f 142/3/2 143/3/2 146/3/2
f 146/3/2 143/3/2 147/3/2
f 144/2/2 145/2/2 148/2/2
f 145/2/2 146/2/2 148/2/2
f 146/2/2 147/2/2 148/2/2
f 148/2/2 147/2/2 149/2/2
f 148/3/2 149/3/2 150/3/2
f 150/3/2 149/3/2 151/3/2
f 150/2/2 151/2/2 152/2/2
f 152/2/2 151/2/2 153/2/2
f 152/3/2 153/3/2 154/3/2
f 154/3/2 153/3/2 155/3/2
f 156/3/2 157/3/2 158/3/2
f 158/3/2 157/3/2 159/3/2
f 158/2/2 159/2/2 160/2/2
f 160/2/2 159/2/2 161/2/2
f 160/3/2 161/3/2 162/3/2
f 162/3/2 161/3/2 163/3/2
f 162/2/2 163/2/2 164/2/2
f 164/2/2 163/2/2 165/2/2
f 164/3/2 165/3/2 166/3/2
f 166/3/2 165/3/2 167/3/2
f 168/3/2 169/3/2 170/3/2
f 170/3/2 169/3/2 171/3/2
f 170/2/2 171/2/2 172/2/2
f 172/2/2 171/2/2 173/2/2
f 172/3/2 173/3/2 174/3/2
f 174/3/2 173/3/2 175/3/2
f 174/2/2 175/2/2 176/2/2
f 176/2/2 175/2/2 177/2/2
f 176/3/2 177/3/2 178/3/2
f 178/3/2 177/3/2 179/3/2
f 180/1/2 181/1/2 184/1/2
f 184/1/2 181/1/2 185/1/2
f 182/1/2 183/1/2 186/1/2
f 186/1/2 183/1/2 187/1/2
f 188/3/2 189/3/2 190/3/2
f 190/3/2 189/3/2 191/3/2
f 190/2/2 191/2/2 192/2/2
f 192/2/2 191/2/2 193/2/2
f 192/3/2 193/3/2 194/3/2
f 194/3/2 193/3/2 195/3/2
f 196/3/2 197/3/2 198/3/2
f 198/3/2 197/3/2 199/3/2
f 199/3/2 197/3/2 200/3/2
f 199/2/2 200/2/2 201/2/2
f 201/2/2 200/2/2 202/2/2
f 202/2/2 200/2/2 203/2/2
f 202/3/2 203/3/2 204/3/2
f 204/3/2 203/3/2 205/3/2
f 204/2/2 205/2/2 206/2/2
f 206/2/2 205/2/2 207/2/2
f 206/3/2 207/3/2 210/3/2
f 210/3/2 207/3/2 211/3/2
f 208/2/2 209/2/2 212/2/2
f 212/2/2 209/2/2 213/2/2
f 210/2/2 211/2/2 214/2/2
f 214/2/2 211/2/2 215/2/2
f 212/3/2 213/3/2 216/3/2
f 216/3/2 213/3/2 217/3/2
f 214/3/2 215/3/2 218/3/2
f 218/3/2 215/3/2 219/3/2
f 216/2/2 217/2/2 220/2/2
f 217/2/2 218/2/2 220/2/2
f 218/2/2 219/2/2 220/2/2
f 220/2/2 219/2/2 221/2/2
f 220/3/2 221/3/2 222/3/2
f 222/3/2 221/3/2 223/3/2
f 226/3/3 225/3/3 224/3/3
f 227/3/3 225/3/3 226/3/3
f 230/2/3 229/2/3 228/2/3
f 231/2/3 229/2/3 230/2/3
f 242/3/3 233/3/3 232/3/3
f 243/2/3 234/2/3 233/2/3
f 243/3/3 233/3/3 242/3/3
f 244/3/3 235/3/3 234/3/3
f 244/2/3 234/2/3 243/2/3
f 245/3/3 235/3/3 244/3/3
f 246/2/3 236/2/3 235/2/3
f 246/3/3 235/3/3 245/3/3
f 247/3/3 237/3/3 236/3/3
f 247/2/3 236/2/3 246/2/3
f 248/2/3 238/2/3 237/2/3
f 248/3/3 237/3/3 247/3/3
f 249/2/3 238/2/3 248/2/3
f 250/3/3 239/3/3 238/3/3
f 250/2/3 238/2/3 249/2/3
f 251/2/3 240/2/3 239/2/3
f 251/3/3 239/3/3 250/3/3
f 252/3/3 241/3/3 240/3/3
f 252/2/3 240/2/3 251/2/3
f 253/3/3 241/3/3 252/3/3
f 264/3/3 255/3/3 254/3/3
f 265/2/3 256/2/3 255/2/3
f 265/3/3 255/3/3 264/3/3
f 266/3/3 257/3/3 256/3/3
f 266/2/3 256/2/3 265/2/3
f 267/2/3 258/2/3 257/2/3
f 267/3/3 257/3/3 266/3/3
f 268/3/3 259/3/3 258/3/3
f 268/2/3 258/2/3 267/2/3
f 269/2/3 260/2/3 259/2/3
f 269/3/3 259/3/3 268/3/3
f 270/3/3 261/3/3 260/3/3
f 270/2/3 260/2/3 269/2/3
f 271/2/3 262/2/3 261/2/3
f 271/3/3 261/3/3 270/3/3
f 272/3/3 263/3/3 262/3/3
f 272/2/3 262/2/3 271/2/3
f 273/3/3 263/3/3 272/3/3
f 284/3/3 275/3/3 274/3/3
f 285/2/3 276/2/3 275/2/3
f 285/3/3 275/3/3 284/3/3
f 286/3/3 277/3/3 276/3/3
f 286/2/3 276/2/3 285/2/3
f 287/2/3 278/2/3 277/2/3
f 287/3/3 277/3/3 286/3/3
f 288/3/3 279/3/3 278/3/3
f 288/2/3 278/2/3 287/2/3
f 289/2/3 280/2/3 279/2/3
f 289/3/3 279/3/3 288/3/3
f 290/3/3 281/3/3 280/3/3
f 290/2/3 280/2/3 289/2/3
f 291/2/3 282/2/3 281/2/3
f 291/3/3 281/3/3 290/3/3
f 292/3/3 283/3/3 282/3/3
f 292/2/3 282/2/3 291/2/3
f 293/3/3 283/3/3 292/3/3
f 304/3/3 295/3/3 294/3/3
f 305/2/3 296/2/3 295/2/3
f 305/3/3 295/3/3 304/3/3
f 306/3/3 297/3/3 296/3/3
f 306/2/3 296/2/3 305/2/3
f 307/2/3 298/2/3 297/2/3
f 307/3/3 297/3/3 306/3/3
f 308/3/3 299/3/3 298/3/3
f 308/2/3 298/2/3 307/2/3
f 309/2/3 300/2/3 299/2/3
f 309/3/3 299/3/3 308/3/3
f 310/3/3 301/3/3 300/3/3
f 310/2/3 300/2/3 309/2/3
f 311/2/3 302/2/3 301/2/3
f 311/3/3 301/3/3 310/3/3
f 312/3/3 303/3/3 302/3/3
f 312/2/3 302/2/3 311/2/3
f 313/3/3 303/3/3 312/3/3
f 316/1/3 315/1/3 314/1/3
f 317/1/3 315/1/3 316/1/3
f 320/1/3 319/1/3 318/1/3
f 321/1/3 319/1/3 320/1/3
f 324/3/3 323/3/3 322/3/3
f 325/3/3 323/3/3 324/3/3
f 332/3/3 327/3/3 326/3/3
f 333/2/3 328/2/3 327/2/3
f 333/3/3 327/3/3 332/3/3
f 334/3/3 329/3/3 328/3/3
f 334/2/3 328/2/3 333/2/3
f 335/2/3 330/2/3 329/2/3
f 335/3/3 329/3/3 334/3/3
f 336/3/3 331/3/3 330/3/3
f 336/2/3 330/2/3 335/2/3
f 337/3/3 331/3/3 336/3/3
f 338/3/4 339/3/4 344/3/4
f 339/2/4 340/2/4 345/2/4
f 344/3/4 339/3/4 345/3/4
f 340/3/4 341/3/4 346/3/4
f 345/2/4 340/2/4 346/2/4
f 341/2/4 342/2/4 347/2/4
f 346/3/4 341/3/4 347/3/4
f 347/2/4 342/2/4 348/2/4
f 342/3/4 343/3/4 349/3/4
f 348/2/4 342/2/4 349/2/4
f 349/3/4 343/3/4 350/3/4
f 351/3/4 352/3/4 357/3/4
f 352/2/4 353/2/4 358/2/4
f 357/3/4 352/3/4 358/3/4
f 353/3/4 354/3/4 359/3/4
f 358/2/4 353/2/4 359/2/4
f 354/2/4 355/2/4 360/2/4
f 359/3/4 354/3/4 360/3/4
f 355/3/4 356/3/4 361/3/4
f 360/2/4 355/2/4 361/2/4
f 361/3/4 356/3/4 362/3/4
f 363/3/4 364/3/4 369/3/4
f 364/2/4 365/2/4 370/2/4
f 369/3/4 364/3/4 370/3/4
f 365/3/4 366/3/4 371/3/4
f 370/2/4 365/2/4 371/2/4
f 366/2/4 367/2/4 372/2/4
f 371/3/4 366/3/4 372/3/4
f 367/3/4 368/3/4 373/3/4
f 372/2/4 367/2/4 373/2/4
f 373/3/4 368/3/4 374/3/4
f 375/3/4 376/3/4 377/3/4
f 377/3/4 376/3/4 378/3/4
f 379/1/4 380/1/4 381/1/4
f 381/1/4 380/1/4 382/1/4
f 383/1/4 384/1/4 385/1/4
f 385/1/4 384/1/4 386/1/4
f 387/3/4 388/3/4 397/3/4
f 388/2/4 389/2/4 398/2/4
f 397/3/4 388/3/4 398/3/4
f 389/3/4 390/3/4 399/3/4
f 398/2/4 389/2/4 399/2/4
f 390/2/4 391/2/4 400/2/4
f 399/3/4 390/3/4 400/3/4
f 391/3/4 392/3/4 401/3/4
f 400/2/4 391/2/4 401/2/4
f 392/2/4 393/2/4 402/2/4
f 401/3/4 392/3/4 402/3/4
f 393/3/4 394/3/4 403/3/4
f 402/2/4 393/2/4 403/2/4
f 394/2/4 395/2/4 404/2/4
f 403/3/4 394/3/4 404/3/4
f 395/3/4 396/3/4 405/3/4
f 404/2/4 395/2/4 405/2/4
f 405/3/4 396/3/4 406/3/4
f 407/3/4 408/3/4 417/3/4
f 408/2/4 409/2/4 418/2/4
f 417/3/4 408/3/4 418/3/4
f 409/3/4 410/3/4 419/3/4
f 418/2/4 409/2/4 419/2/4
f 410/2/4 411/2/4 420/2/4
f 419/3/4 410/3/4 420/3/4
f 411/3/4 412/3/4 421/3/4
f 420/2/4 411/2/4 421/2/4
f 412/2/4 413/2/4 422/2/4
f 421/3/4 412/3/4 422/3/4
f 413/3/4 414/3/4 423/3/4
f 422/2/4 413/2/4 423/2/4
f 414/2/4 415/2/4 424/2/4
f 423/3/4 414/3/4 424/3/4
f 415/3/4 416/3/4 425/3/4
f 424/2/4 415/2/4 425/2/4
f 425/3/4 416/3/4 426/3/4
f 427/3/4 428/3/4 437/3/4
f 428/2/4 429/2/4 438/2/4
f 437/3/4 428/3/4 438/3/4
f 429/3/4 430/3/4 439/3/4
f 438/2/4 429/2/4 439/2/4
f 430/2/4 431/2/4 440/2/4
f 439/3/4 430/3/4 440/3/4
f 431/3/4 432/3/4 441/3/4
f 440/2/4 431/2/4 441/2/4
f 432/2/4 433/2/4 442/2/4
f 441/3/4 432/3/4 442/3/4
f 433/3/4 434/3/4 443/3/4
f 442/2/4 433/2/4 443/2/4
f 434/2/4 435/2/4 444/2/4
f 443/3/4 434/3/4 444/3/4
f 435/3/4 436/3/4 445/3/4
f 444/2/4 435/2/4 445/2/4
f 445/3/4 436/3/4 446/3/4
f 450/3/5 448/3/5 447/3/5
f 452/3/5 450/3/5 449/3/5
f 454/3/5 452/3/5 451/3/5
f 456/3/5 454/3/5 453/3/5
f 457/3/5 456/3/5 455/3/5
f 458/3/5 454/3/5 456/3/5
f 458/3/5 456/3/5 457/3/5
f 459/3/5 454/3/5 458/3/5
f 460/3/5 452/3/5 454/3/5
f 460/3/5 454/3/5 459/3/5
f 461/3/5 452/3/5 460/3/5
f 462/3/5 448/3/5 450/3/5
f 462/3/5 452/3/5 461/3/5
f 462/3/5 450/3/5 452/3/5
f 465/2/5 464/2/5 463/2/5
f 466/2/5 464/2/5 465/2/5
f 469/2/5 468/2/5 467/2/5
f 470/2/5 468/2/5 469/2/5
f 473/1/5 472/1/5 471/1/5
f 474/1/5 472/1/5 473/1/5
f 477/1/5 476/1/5 475/1/5
f 478/1/5 476/1/5 477/1/5
f 482/2/5 480/2/5 479/2/5
f 484/2/5 482/2/5 481/2/5
f 485/2/5 480/2/5 482/2/5
f 485/2/5 484/2/5 483/2/5
f 485/2/5 482/2/5 484/2/5
f 486/2/5 480/2/5 485/2/5
f 487/2/5 485/2/5 483/2/5
f 488/2/5 480/2/5 486/2/5
f 489/2/5 487/2/5 483/2/5
f 489/2/5 488/2/5 487/2/5
f 490/2/5 480/2/5 488/2/5
f 490/2/5 488/2/5 489/2/5
f 491/2/5 489/2/5 483/2/5
f 492/2/5 480/2/5 490/2/5
f 493/2/5 491/2/5 483/2/5
f 493/2/5 492/2/5 491/2/5
f 494/2/5 480/2/5 492/2/5
f 494/2/5 492/2/5 493/2/5
f 495/3/6 496/3/6 497/3/6
f 497/3/6 496/3/6 498/3/6
f 499/2/6 500/2/6 501/2/6
f 501/2/6 500/2/6 502/2/6
f 502/2/6 500/2/6 504/2/6
f 503/2/6 504/2/6 506/2/6
f 505/2/6 506/2/6 508/2/6
f 507/2/6 508/2/6 510/2/6
f 509/2/6 510/2/6 511/2/6
f 510/2/6 508/2/6 512/2/6
f 511/2/6 510/2/6 512/2/6
f 512/2/6 508/2/6 513/2/6
f 504/2/6 500/2/6 514/2/6
f 513/2/6 508/2/6 514/2/6
f 506/2/6 504/2/6 514/2/6
f 508/2/6 506/2/6 514/2/6
f 515/3/6 516/3/6 518/3/6
f 517/3/6 518/3/6 520/3/6
f 519/3/6 520/3/6 522/3/6
f 521/3/6 522/3/6 523/3/6
f 522/3/6 520/3/6 524/3/6
f 523/3/6 522/3/6 524/3/6
f 524/3/6 520/3/6 525/3/6
f 520/3/6 518/3/6 526/3/6
f 525/3/6 520/3/6 526/3/6
f 526/3/6 518/3/6 527/3/6
f 518/3/6 516/3/6 528/3/6
f 527/3/6 518/3/6 528/3/6
